<svg width="24" height="24" viewBox="0 0 24 24" fill="none" xmlns="http://www.w3.org/2000/svg">
<path d="M12 2.5C17.25 2.5 21.5 6.75 21.5 12C21.5 13.6 21.1 15.1 20.4 16.4L15.9 13.9C16.15 13.32 16.3 12.68 16.3 12C16.3 9.62 14.38 7.7 12 7.7V2.5Z" fill="#FF6384"/>
<path d="M20.4 16.4C18.78 19.32 15.62 21.5 12 21.5C6.75 21.5 2.5 17.25 2.5 12C2.5 7.1 6.21 3.05 10.97 2.55L11.5 7.75C9.37 8 7.7 9.8 7.7 12C7.7 14.38 9.62 16.3 12 16.3C13.45 16.3 14.73 15.58 15.5 14.48L20.4 16.4Z" fill="#36A2EB"/>
<circle cx="12" cy="12" r="3.4" fill="none" stroke="#FFFFFF" stroke-width="0.6" stroke-opacity="0.25"/>
</svg>
