<svg width="24" height="24" viewBox="0 0 24 24" fill="none" xmlns="http://www.w3.org/2000/svg">
<path d="M4.5 17.3L5.9 4.6C5.95 4.2 6.5 4.1 6.7 4.45L9.1 8.9L4.5 17.3Z" fill="#FFC24A"/>
<path d="M4.5 17.3L6.55 6.6C6.6 6.3 7 6.2 7.2 6.45L9.1 9.9L4.5 17.3Z" fill="#FFA712"/>
<path d="M12.4 12.05L14.9 9.5C15.15 9.25 15 8.8 14.65 8.75L9.1 8.9L12.4 12.05Z" fill="#F4BD62"/>
<path d="M4.5 17.3L13.4 6.05C13.65 5.7 14.2 5.85 14.3 6.3L15.5 17.3L12.5 19.1C12.1 19.35 11.6 19.35 11.2 19.1L4.5 17.3Z" fill="#FFA50E"/>
<path d="M15.5 17.3L14.3 6.3C14.2 5.85 13.65 5.7 13.4 6.05L4.5 17.3L11.2 19.1C11.6 19.35 12.1 19.35 12.5 19.1L15.5 17.3Z" fill="#F6820C"/>
</svg>
