<svg width="24" height="24" viewBox="0 0 24 24" fill="none" xmlns="http://www.w3.org/2000/svg">
<path d="M10.95 3.5L11 8.7L13 8.7L13 3.5L12 2L10.95 3.5Z" fill="#FFFFFF"/>
<path d="M11 15.3L11 20.5L12 22L13 20.5L13 15.3L11 15.3Z" fill="#FFFFFF"/>
<path d="M13.45 10.1L16.5 5.9L18.2 7.1L15.15 11.3L13.45 10.1Z" fill="#00F2E6"/>
<path d="M8.85 13.9L5.8 18.1L4.1 16.9L7.15 12.7L8.85 13.9Z" fill="#00F2E6"/>
<path d="M15.15 12.7L18.2 16.9L16.5 18.1L13.45 13.9L15.15 12.7Z" fill="#D63AFF"/>
<path d="M7.15 11.3L4.1 7.1L5.8 5.9L8.85 10.1L7.15 11.3Z" fill="#D63AFF"/>
<path d="M14.6 10.95L19.6 9.3L20.2 11.2L15.2 12.85L14.6 10.95Z" fill="#00B9F1"/>
<path d="M3.8 12.85L8.8 11.2L9.4 13.05L4.4 14.7L3.8 12.85Z" fill="#00B9F1"/>
<path d="M9.4 10.95L4.4 9.3L3.8 11.2L8.8 12.85L9.4 10.95Z" fill="#FB015B"/>
<path d="M15.2 10.95L20.2 12.6L19.6 14.5L14.6 12.85L15.2 10.95Z" fill="#FB015B"/>
<circle cx="12" cy="11.9" r="2" fill="#FFFFFF"/>
</svg>
