<svg width="24" height="24" viewBox="0 0 24 24" fill="none" xmlns="http://www.w3.org/2000/svg">
<path d="M12 1.85C11.73 1.85 11.48 1.92 11.25 2.05L3.4 6.6C2.94 6.86 2.66 7.36 2.66 7.9V16.1C2.66 16.64 2.94 17.14 3.4 17.4L11.25 21.95C11.71 22.21 12.29 22.21 12.75 21.95L20.6 17.4C21.06 17.14 21.34 16.64 21.34 16.1V7.9C21.34 7.36 21.06 6.86 20.6 6.6L12.75 2.05C12.52 1.92 12.27 1.85 12 1.85Z" fill="#539E43"/>
<path d="M12 18.6C11.87 18.6 11.75 18.57 11.64 18.5L9.5 17.25C9.32 17.15 9.41 17.11 9.46 17.09C9.7 17.01 9.75 16.99 10 16.84C10.03 16.82 10.07 16.83 10.1 16.85L11.74 17.82C11.78 17.84 11.83 17.84 11.86 17.82L18.27 14.12C18.31 14.1 18.33 14.06 18.33 14.01V6.62C18.33 6.57 18.31 6.53 18.27 6.51L11.86 2.81C11.82 2.79 11.78 2.79 11.74 2.81L5.33 6.51C5.29 6.53 5.27 6.58 5.27 6.62V14.01C5.27 14.06 5.29 14.1 5.33 14.12L7.09 15.13C8.04 15.61 8.63 15.05 8.63 14.49V7.2C8.63 7.1 8.71 7.02 8.82 7.02H9.64C9.74 7.02 9.83 7.1 9.83 7.2V14.49C9.83 15.76 9.13 16.49 7.92 16.49C7.55 16.49 7.26 16.49 6.44 16.08L4.75 15.11C4.52 14.98 4.38 14.73 4.38 14.46V7.07C4.38 6.8 4.52 6.55 4.75 6.42L11.16 2.71C11.39 2.59 11.69 2.59 11.92 2.71L18.33 6.42C18.56 6.55 18.7 6.8 18.7 7.07V14.46C18.7 14.73 18.56 14.98 18.33 15.11L11.92 18.82C11.81 18.88 11.68 18.6 12 18.6Z" fill="#FFFFFF"/>
<path d="M13.98 13.96C11.18 13.96 10.6 12.67 10.6 11.59C10.6 11.49 10.68 11.41 10.79 11.41H11.62C11.72 11.41 11.8 11.48 11.81 11.57C11.94 12.42 12.31 12.85 13.98 12.85C15.3 12.85 15.87 12.55 15.87 11.85C15.87 11.44 15.71 11.14 13.65 10.94C11.93 10.77 10.86 10.39 10.86 9.01C10.86 7.74 11.93 6.98 13.72 6.98C15.73 6.98 16.73 7.68 16.86 9.18C16.86 9.23 16.85 9.28 16.81 9.32C16.78 9.35 16.73 9.38 16.68 9.38H15.85C15.76 9.38 15.68 9.31 15.66 9.23C15.46 8.34 14.97 8.06 13.72 8.06C12.32 8.06 12.16 8.55 12.16 8.91C12.16 9.35 12.35 9.48 14.3 9.74C16.23 10 17.17 10.36 17.17 11.72C17.16 13.09 16.02 13.96 13.98 13.96Z" fill="#FFFFFF"/>
</svg>
