<svg width="24" height="24" viewBox="0 0 24 24" fill="none" xmlns="http://www.w3.org/2000/svg">
<ellipse cx="12" cy="6" rx="8" ry="3.2" fill="#336791"/>
<path d="M4 6V18C4 19.77 7.58 21.2 12 21.2C16.42 21.2 20 19.77 20 18V6" fill="#336791"/>
<path d="M4 6V18C4 19.77 7.58 21.2 12 21.2C16.42 21.2 20 19.77 20 18V6" stroke="#1F4866" stroke-width="0.5"/>
<ellipse cx="12" cy="6" rx="8" ry="3.2" fill="#4178A4"/>
<path d="M4 10C4 11.77 7.58 13.2 12 13.2C16.42 13.2 20 11.77 20 10" stroke="#1F4866" stroke-width="0.7" fill="none"/>
<path d="M4 14C4 15.77 7.58 17.2 12 17.2C16.42 17.2 20 15.77 20 14" stroke="#1F4866" stroke-width="0.7" fill="none"/>
<ellipse cx="12" cy="6" rx="8" ry="3.2" stroke="#1F4866" stroke-width="0.5" fill="none"/>
</svg>
