<svg width="24" height="24" viewBox="0 0 24 24" fill="none" xmlns="http://www.w3.org/2000/svg">
<path d="M2.5 13.2C2.6 13.05 2.8 13 3 13H17.4C17.7 13 17.9 12.6 17.7 12.35C16.2 10.5 13.9 9.3 11.3 9.3H3.2C3 9.3 2.85 9.15 2.85 8.95V8.4C2.85 8.2 3 8.05 3.2 8.05H11.3C14.8 8.05 17.9 9.95 19.6 12.8C19.7 12.95 19.85 13 20 13H21.3C21.55 13 21.7 13.3 21.55 13.5C19.6 16.6 16.2 18.65 12.3 18.65H3.2C3 18.65 2.85 18.5 2.85 18.3V17.75C2.85 17.55 3 17.4 3.2 17.4H12.3C14.7 17.4 16.85 16.45 18.45 14.9C18.65 14.7 18.5 14.35 18.2 14.35H3C2.8 14.35 2.6 14.3 2.5 14.15V13.2Z" fill="#FFFFFF"/>
<circle cx="20.3" cy="9.2" r="1.1" fill="#FFFFFF"/>
</svg>
