<svg width="24" height="24" viewBox="0 0 24 24" fill="none" xmlns="http://www.w3.org/2000/svg">
<circle cx="12" cy="12" r="11" fill="#6DB33F"/>
<path d="M18.6 5.9C18.3 6.5 17.9 7 17.4 7.4C18.6 9 19.1 11.1 18.6 13.1C18 15.6 15.9 17.5 13.4 18C11 18.4 8.6 17.4 7.2 15.5C7.05 15.3 7.1 15 7.3 14.85C7.5 14.7 7.8 14.75 7.95 14.95C9.1 16.5 11.1 17.35 13.1 17C15.2 16.6 16.95 15 17.45 12.9C17.85 11.25 17.45 9.55 16.5 8.2C16.05 8.5 15.55 8.7 15 8.8C15.9 9.9 16.2 11.4 15.7 12.8C15.65 13 15.4 13.15 15.2 13.1C14.95 13.05 14.8 12.8 14.85 12.6C15.3 11.3 14.9 9.9 13.9 9.05C13.7 11.2 12.6 13.2 10.8 14.4C9.4 15.35 7.7 15.7 6.1 15.4C6.05 15.2 6 15 6 14.8C6 9.95 9.5 5.95 14.2 5.1C15.3 4.9 16.5 4.95 17.6 5.2C17.95 5.3 18.3 5.5 18.6 5.9Z" fill="#FFFFFF"/>
</svg>
