<svg width="24" height="24" viewBox="0 0 24 24" fill="none" xmlns="http://www.w3.org/2000/svg">
<rect width="24" height="24" rx="5" fill="#635BFF"/>
<path d="M11.3 9.6C11.3 9.05 11.75 8.85 12.45 8.85C13.5 8.85 14.85 9.17 15.9 9.74V6.5C14.75 6.05 13.6 5.87 12.45 5.87C9.65 5.87 7.8 7.32 7.8 9.75C7.8 13.5 13 12.92 13 14.55C13 15.2 12.45 15.4 11.7 15.4C10.55 15.4 9.05 14.93 7.9 14.28V17.55C9.2 18.1 10.5 18.33 11.7 18.33C14.55 18.33 16.5 16.95 16.5 14.45C16.5 10.45 11.3 11.12 11.3 9.6Z" fill="#FFFFFF"/>
</svg>
